<svg width="183" height="75" viewBox="0 0 183 75" fill="none" xmlns="http://www.w3.org/2000/svg">
<path d="M28.9414 13H24.166V4.43359H28.9414V5.31836H25.1621V8.07812H28.7129V8.95703H25.1621V12.1094H28.9414V13ZM32.7734 12.3145C32.9453 12.3145 33.1113 12.3027 33.2715 12.2793C33.4316 12.252 33.5586 12.2246 33.6523 12.1973V12.9414C33.5469 12.9922 33.3906 13.0332 33.1836 13.0645C32.9805 13.0996 32.7969 13.1172 32.6328 13.1172C31.3906 13.1172 30.7695 12.4629 30.7695 11.1543V7.33398H29.8496V6.86523L30.7695 6.46094L31.1797 5.08984H31.7422V6.57812H33.6055V7.33398H31.7422V11.1133C31.7422 11.5 31.834 11.7969 32.0176 12.0039C32.2012 12.2109 32.4531 12.3145 32.7734 12.3145ZM39.3359 13V8.8457C39.3359 8.32227 39.2168 7.93164 38.9785 7.67383C38.7402 7.41602 38.3672 7.28711 37.8594 7.28711C37.1836 7.28711 36.6895 7.4707 36.377 7.83789C36.0684 8.20508 35.9141 8.80664 35.9141 9.64258V13H34.9414V3.88281H35.9141V6.64258C35.9141 6.97461 35.8984 7.25 35.8672 7.46875H35.9258C36.1172 7.16016 36.3887 6.91797 36.7402 6.74219C37.0957 6.5625 37.5 6.47266 37.9531 6.47266C38.7383 6.47266 39.3262 6.66016 39.7168 7.03516C40.1113 7.40625 40.3086 7.99805 40.3086 8.81055V13H39.3359ZM45.0254 13.1172C44.0762 13.1172 43.3262 12.8281 42.7754 12.25C42.2285 11.6719 41.9551 10.8691 41.9551 9.8418C41.9551 8.80664 42.209 7.98438 42.7168 7.375C43.2285 6.76562 43.9141 6.46094 44.7734 6.46094C45.5781 6.46094 46.2148 6.72656 46.6836 7.25781C47.1523 7.78516 47.3867 8.48242 47.3867 9.34961V9.96484H42.9629C42.9824 10.7188 43.1719 11.291 43.5312 11.6816C43.8945 12.0723 44.4043 12.2676 45.0605 12.2676C45.752 12.2676 46.4355 12.123 47.1113 11.834V12.7012C46.7676 12.8496 46.4414 12.9551 46.1328 13.0176C45.8281 13.084 45.459 13.1172 45.0254 13.1172ZM44.7617 7.27539C44.2461 7.27539 43.834 7.44336 43.5254 7.7793C43.2207 8.11523 43.041 8.58008 42.9863 9.17383H46.3438C46.3438 8.56055 46.207 8.0918 45.9336 7.76758C45.6602 7.43945 45.2695 7.27539 44.7617 7.27539ZM51.9805 6.46094C52.2656 6.46094 52.5215 6.48438 52.748 6.53125L52.6133 7.43359C52.3477 7.375 52.1133 7.3457 51.9102 7.3457C51.3906 7.3457 50.9453 7.55664 50.5742 7.97852C50.207 8.40039 50.0234 8.92578 50.0234 9.55469V13H49.0508V6.57812H49.8535L49.9648 7.76758H50.0117C50.25 7.34961 50.5371 7.02734 50.873 6.80078C51.209 6.57422 51.5781 6.46094 51.9805 6.46094ZM56.6621 13.1172C55.7129 13.1172 54.9629 12.8281 54.4121 12.25C53.8652 11.6719 53.5918 10.8691 53.5918 9.8418C53.5918 8.80664 53.8457 7.98438 54.3535 7.375C54.8652 6.76562 55.5508 6.46094 56.4102 6.46094C57.2148 6.46094 57.8516 6.72656 58.3203 7.25781C58.7891 7.78516 59.0234 8.48242 59.0234 9.34961V9.96484H54.5996C54.6191 10.7188 54.8086 11.291 55.168 11.6816C55.5312 12.0723 56.041 12.2676 56.6973 12.2676C57.3887 12.2676 58.0723 12.123 58.748 11.834V12.7012C58.4043 12.8496 58.0781 12.9551 57.7695 13.0176C57.4648 13.084 57.0957 13.1172 56.6621 13.1172ZM56.3984 7.27539C55.8828 7.27539 55.4707 7.44336 55.1621 7.7793C54.8574 8.11523 54.6777 8.58008 54.623 9.17383H57.9805C57.9805 8.56055 57.8438 8.0918 57.5703 7.76758C57.2969 7.43945 56.9062 7.27539 56.3984 7.27539ZM61.6016 6.57812V10.7441C61.6016 11.2676 61.7207 11.6582 61.959 11.916C62.1973 12.1738 62.5703 12.3027 63.0781 12.3027C63.75 12.3027 64.2402 12.1191 64.5488 11.752C64.8613 11.3848 65.0176 10.7852 65.0176 9.95312V6.57812H65.9902V13H65.1875L65.0469 12.1387H64.9941C64.7949 12.4551 64.5176 12.6973 64.1621 12.8652C63.8105 13.0332 63.4082 13.1172 62.9551 13.1172C62.1738 13.1172 61.5879 12.9316 61.1973 12.5605C60.8105 12.1895 60.6172 11.5957 60.6172 10.7793V6.57812H61.6016ZM76.2441 13V8.82227C76.2441 8.31055 76.1348 7.92773 75.916 7.67383C75.6973 7.41602 75.3574 7.28711 74.8965 7.28711C74.291 7.28711 73.8438 7.46094 73.5547 7.80859C73.2656 8.15625 73.1211 8.69141 73.1211 9.41406V13H72.1484V8.82227C72.1484 8.31055 72.0391 7.92773 71.8203 7.67383C71.6016 7.41602 71.2598 7.28711 70.7949 7.28711C70.1855 7.28711 69.7383 7.4707 69.4531 7.83789C69.1719 8.20117 69.0312 8.79883 69.0312 9.63086V13H68.0586V6.57812H68.8496L69.0078 7.45703H69.0547C69.2383 7.14453 69.4961 6.90039 69.8281 6.72461C70.1641 6.54883 70.5391 6.46094 70.9531 6.46094C71.957 6.46094 72.6133 6.82422 72.9219 7.55078H72.9688C73.1602 7.21484 73.4375 6.94922 73.8008 6.75391C74.1641 6.55859 74.5781 6.46094 75.043 6.46094C75.7695 6.46094 76.3125 6.64844 76.6719 7.02344C77.0352 7.39453 77.2168 7.99023 77.2168 8.81055V13H76.2441Z" fill="white"/>
<g filter="url(#filter0_d_56_222)">
<ellipse opacity="0.5" cx="9.98975" cy="9.02965" rx="5" ry="5.01647" fill="white" fill-opacity="0.5"/>
<ellipse cx="9.98975" cy="9.02941" rx="3" ry="3.00988" fill="#F5FBFE"/>
</g>
<path d="M162.939 13H161.129V8.04297L161.146 7.22852L161.176 6.33789C160.875 6.63867 160.666 6.83594 160.549 6.92969L159.564 7.7207L158.691 6.63086L161.451 4.43359H162.939V13ZM168.271 4.32227C169.092 4.32227 169.752 4.50977 170.252 4.88477C170.756 5.25586 171.008 5.75781 171.008 6.39062C171.008 6.82812 170.887 7.21875 170.645 7.5625C170.402 7.90234 170.012 8.20703 169.473 8.47656C170.113 8.82031 170.572 9.17969 170.85 9.55469C171.131 9.92578 171.271 10.334 171.271 10.7793C171.271 11.4824 170.996 12.0488 170.445 12.4785C169.895 12.9043 169.17 13.1172 168.271 13.1172C167.334 13.1172 166.598 12.918 166.062 12.5195C165.527 12.1211 165.26 11.5566 165.26 10.8262C165.26 10.3379 165.389 9.9043 165.646 9.52539C165.908 9.14648 166.326 8.8125 166.9 8.52344C166.412 8.21484 166.061 7.88477 165.846 7.5332C165.631 7.18164 165.523 6.79688 165.523 6.37891C165.523 5.76562 165.777 5.26953 166.285 4.89062C166.793 4.51172 167.455 4.32227 168.271 4.32227ZM166.936 10.7207C166.936 11.0566 167.053 11.3184 167.287 11.5059C167.521 11.6934 167.842 11.7871 168.248 11.7871C168.697 11.7871 169.033 11.6914 169.256 11.5C169.479 11.3047 169.59 11.0488 169.59 10.7324C169.59 10.4707 169.479 10.2266 169.256 10C169.037 9.76953 168.68 9.52539 168.184 9.26758C167.352 9.65039 166.936 10.1348 166.936 10.7207ZM168.26 5.64648C167.951 5.64648 167.701 5.72656 167.51 5.88672C167.322 6.04297 167.229 6.25391 167.229 6.51953C167.229 6.75391 167.303 6.96484 167.451 7.15234C167.604 7.33594 167.877 7.52539 168.271 7.7207C168.654 7.54102 168.922 7.35742 169.074 7.16992C169.227 6.98242 169.303 6.76562 169.303 6.51953C169.303 6.25 169.205 6.03711 169.01 5.88086C168.814 5.72461 168.564 5.64648 168.26 5.64648ZM173.539 7C173.539 7.49609 173.582 7.86719 173.668 8.11328C173.758 8.35547 173.9 8.47656 174.096 8.47656C174.471 8.47656 174.658 7.98438 174.658 7C174.658 6.02344 174.471 5.53516 174.096 5.53516C173.9 5.53516 173.758 5.65625 173.668 5.89844C173.582 6.13672 173.539 6.50391 173.539 7ZM176.135 6.98828C176.135 7.88672 175.961 8.5625 175.613 9.01562C175.266 9.46484 174.756 9.68945 174.084 9.68945C173.439 9.68945 172.941 9.45898 172.59 8.99805C172.238 8.5332 172.062 7.86328 172.062 6.98828C172.062 5.20312 172.736 4.31055 174.084 4.31055C174.744 4.31055 175.25 4.54297 175.602 5.00781C175.957 5.46875 176.135 6.12891 176.135 6.98828ZM180.166 4.43359L175.414 13H174.008L178.76 4.43359H180.166ZM179.539 10.4219C179.539 10.918 179.582 11.2891 179.668 11.5352C179.758 11.7773 179.9 11.8984 180.096 11.8984C180.471 11.8984 180.658 11.4062 180.658 10.4219C180.658 9.44531 180.471 8.95703 180.096 8.95703C179.9 8.95703 179.758 9.07812 179.668 9.32031C179.582 9.55859 179.539 9.92578 179.539 10.4219ZM182.135 10.4102C182.135 11.3047 181.961 11.9785 181.613 12.4316C181.266 12.8809 180.756 13.1055 180.084 13.1055C179.439 13.1055 178.941 12.875 178.59 12.4141C178.238 11.9492 178.062 11.2812 178.062 10.4102C178.062 8.625 178.736 7.73242 180.084 7.73242C180.744 7.73242 181.25 7.96484 181.602 8.42969C181.957 8.89062 182.135 9.55078 182.135 10.4102Z" fill="white"/>
<path d="M24.166 31.3066H26.5859C27.7227 31.3066 28.5449 31.4766 29.0527 31.8164C29.5605 32.1562 29.8145 32.6934 29.8145 33.4277C29.8145 33.9355 29.6719 34.3555 29.3867 34.6875C29.1055 35.0156 28.6934 35.2285 28.1504 35.3262V35.3848C29.4512 35.6074 30.1016 36.291 30.1016 37.4355C30.1016 38.2012 29.8418 38.7988 29.3223 39.2285C28.8066 39.6582 28.084 39.873 27.1543 39.873H24.166V31.3066ZM25.1621 34.9746H26.8027C27.5059 34.9746 28.0117 34.8652 28.3203 34.6465C28.6289 34.4238 28.7832 34.0508 28.7832 33.5273C28.7832 33.0469 28.6113 32.7012 28.2676 32.4902C27.9238 32.2754 27.377 32.168 26.627 32.168H25.1621V34.9746ZM25.1621 35.8184V39.0234H26.9492C27.6406 39.0234 28.1602 38.8906 28.5078 38.625C28.8594 38.3555 29.0352 37.9355 29.0352 37.3652C29.0352 36.834 28.8555 36.4434 28.4961 36.1934C28.1406 35.9434 27.5977 35.8184 26.8672 35.8184H25.1621ZM32.7734 39.873H31.8008V33.4512H32.7734V39.873ZM31.7188 31.7109C31.7188 31.4883 31.7734 31.3262 31.8828 31.2246C31.9922 31.1191 32.1289 31.0664 32.293 31.0664C32.4492 31.0664 32.584 31.1191 32.6973 31.2246C32.8105 31.3301 32.8672 31.4922 32.8672 31.7109C32.8672 31.9297 32.8105 32.0938 32.6973 32.2031C32.584 32.3086 32.4492 32.3613 32.293 32.3613C32.1289 32.3613 31.9922 32.3086 31.8828 32.2031C31.7734 32.0938 31.7188 31.9297 31.7188 31.7109ZM36.9102 39.1875C37.082 39.1875 37.248 39.1758 37.4082 39.1523C37.5684 39.125 37.6953 39.0977 37.7891 39.0703V39.8145C37.6836 39.8652 37.5273 39.9062 37.3203 39.9375C37.1172 39.9727 36.9336 39.9902 36.7695 39.9902C35.5273 39.9902 34.9062 39.3359 34.9062 38.0273V34.207H33.9863V33.7383L34.9062 33.334L35.3164 31.9629H35.8789V33.4512H37.7422V34.207H35.8789V37.9863C35.8789 38.373 35.9707 38.6699 36.1543 38.877C36.3379 39.084 36.5898 39.1875 36.9102 39.1875ZM41.6445 39.9902C40.7148 39.9902 39.9941 39.7051 39.4824 39.1348C38.9746 38.5605 38.7207 37.75 38.7207 36.7031C38.7207 35.6289 38.9785 34.7988 39.4941 34.2129C40.0137 33.627 40.752 33.334 41.709 33.334C42.0176 33.334 42.3262 33.3672 42.6348 33.4336C42.9434 33.5 43.1855 33.5781 43.3613 33.668L43.0625 34.4941C42.8477 34.4082 42.6133 34.3379 42.3594 34.2832C42.1055 34.2246 41.8809 34.1953 41.6855 34.1953C40.3809 34.1953 39.7285 35.0273 39.7285 36.6914C39.7285 37.4805 39.8867 38.0859 40.2031 38.5078C40.5234 38.9297 40.9961 39.1406 41.6211 39.1406C42.1562 39.1406 42.7051 39.0254 43.2676 38.7949V39.6562C42.8379 39.8789 42.2969 39.9902 41.6445 39.9902ZM50.3398 36.6562C50.3398 37.7031 50.0762 38.5215 49.5488 39.1113C49.0215 39.6973 48.293 39.9902 47.3633 39.9902C46.7891 39.9902 46.2793 39.8555 45.834 39.5859C45.3887 39.3164 45.0449 38.9297 44.8027 38.4258C44.5605 37.9219 44.4395 37.332 44.4395 36.6562C44.4395 35.6094 44.7012 34.7949 45.2246 34.2129C45.748 33.627 46.4746 33.334 47.4043 33.334C48.3027 33.334 49.0156 33.6328 49.543 34.2305C50.0742 34.8281 50.3398 35.6367 50.3398 36.6562ZM45.4473 36.6562C45.4473 37.4766 45.6113 38.1016 45.9395 38.5312C46.2676 38.9609 46.75 39.1758 47.3867 39.1758C48.0234 39.1758 48.5059 38.9629 48.834 38.5371C49.166 38.1074 49.332 37.4805 49.332 36.6562C49.332 35.8398 49.166 35.2207 48.834 34.7988C48.5059 34.373 48.0195 34.1602 47.375 34.1602C46.7383 34.1602 46.2578 34.3691 45.9336 34.7871C45.6094 35.2051 45.4473 35.8281 45.4473 36.6562ZM53.0234 39.873H52.0508V33.4512H53.0234V39.873ZM51.9688 31.7109C51.9688 31.4883 52.0234 31.3262 52.1328 31.2246C52.2422 31.1191 52.3789 31.0664 52.543 31.0664C52.6992 31.0664 52.834 31.1191 52.9473 31.2246C53.0605 31.3301 53.1172 31.4922 53.1172 31.7109C53.1172 31.9297 53.0605 32.0938 52.9473 32.2031C52.834 32.3086 52.6992 32.3613 52.543 32.3613C52.3789 32.3613 52.2422 32.3086 52.1328 32.2031C52.0234 32.0938 51.9688 31.9297 51.9688 31.7109ZM59.4805 39.873V35.7188C59.4805 35.1953 59.3613 34.8047 59.123 34.5469C58.8848 34.2891 58.5117 34.1602 58.0039 34.1602C57.332 34.1602 56.8398 34.3418 56.5273 34.7051C56.2148 35.0684 56.0586 35.668 56.0586 36.5039V39.873H55.0859V33.4512H55.877L56.0352 34.3301H56.082C56.2812 34.0137 56.5605 33.7695 56.9199 33.5977C57.2793 33.4219 57.6797 33.334 58.1211 33.334C58.8945 33.334 59.4766 33.5215 59.8672 33.8965C60.2578 34.2676 60.4531 34.8633 60.4531 35.6836V39.873H59.4805Z" fill="white"/>
<g filter="url(#filter1_d_56_222)">
<ellipse opacity="0.5" cx="9.98975" cy="35.1151" rx="5" ry="5.01647" fill="#4E93F5" fill-opacity="0.5"/>
<ellipse cx="9.98975" cy="35.1153" rx="3" ry="3.00988" fill="#4E93F5"/>
</g>
<path d="M158.404 35.4468C158.404 33.7515 158.762 32.4897 159.477 31.6616C160.195 30.8335 161.27 30.4194 162.699 30.4194C163.188 30.4194 163.57 30.4487 163.848 30.5073V31.9546C163.5 31.8765 163.156 31.8374 162.816 31.8374C162.195 31.8374 161.688 31.9312 161.293 32.1187C160.902 32.3062 160.609 32.5835 160.414 32.9507C160.219 33.3179 160.104 33.8394 160.068 34.5151H160.145C160.531 33.8511 161.15 33.519 162.002 33.519C162.768 33.519 163.367 33.7593 163.801 34.2397C164.234 34.7202 164.451 35.3843 164.451 36.2319C164.451 37.146 164.193 37.8706 163.678 38.4058C163.162 38.937 162.447 39.2026 161.533 39.2026C160.9 39.2026 160.348 39.0562 159.875 38.7632C159.406 38.4702 159.043 38.0425 158.785 37.48C158.531 36.9175 158.404 36.2397 158.404 35.4468ZM161.498 37.7554C161.885 37.7554 162.182 37.6265 162.389 37.3687C162.596 37.1069 162.699 36.7358 162.699 36.2554C162.699 35.8374 162.602 35.5093 162.406 35.271C162.215 35.0288 161.924 34.9077 161.533 34.9077C161.166 34.9077 160.852 35.0269 160.59 35.2651C160.332 35.5034 160.203 35.7808 160.203 36.0972C160.203 36.562 160.324 36.9546 160.566 37.2749C160.812 37.5952 161.123 37.7554 161.498 37.7554ZM171.5 37.3101H170.469V39.0854H168.699V37.3101H165.043V36.0503L168.799 30.519H170.469V35.9038H171.5V37.3101ZM168.699 35.9038V34.4507C168.699 34.2085 168.709 33.8569 168.729 33.396C168.748 32.9351 168.764 32.6675 168.775 32.5933H168.729C168.584 32.9136 168.41 33.2261 168.207 33.5308L166.637 35.9038H168.699ZM173.539 33.0854C173.539 33.5815 173.582 33.9526 173.668 34.1987C173.758 34.4409 173.9 34.562 174.096 34.562C174.471 34.562 174.658 34.0698 174.658 33.0854C174.658 32.1089 174.471 31.6206 174.096 31.6206C173.9 31.6206 173.758 31.7417 173.668 31.9839C173.582 32.2222 173.539 32.5894 173.539 33.0854ZM176.135 33.0737C176.135 33.9722 175.961 34.6479 175.613 35.1011C175.266 35.5503 174.756 35.7749 174.084 35.7749C173.439 35.7749 172.941 35.5444 172.59 35.0835C172.238 34.6187 172.062 33.9487 172.062 33.0737C172.062 31.2886 172.736 30.396 174.084 30.396C174.744 30.396 175.25 30.6284 175.602 31.0933C175.957 31.5542 176.135 32.2144 176.135 33.0737ZM180.166 30.519L175.414 39.0854H174.008L178.76 30.519H180.166ZM179.539 36.5073C179.539 37.0034 179.582 37.3745 179.668 37.6206C179.758 37.8628 179.9 37.9839 180.096 37.9839C180.471 37.9839 180.658 37.4917 180.658 36.5073C180.658 35.5308 180.471 35.0425 180.096 35.0425C179.9 35.0425 179.758 35.1636 179.668 35.4058C179.582 35.644 179.539 36.0112 179.539 36.5073ZM182.135 36.4956C182.135 37.3901 181.961 38.064 181.613 38.5171C181.266 38.9663 180.756 39.1909 180.084 39.1909C179.439 39.1909 178.941 38.9604 178.59 38.4995C178.238 38.0347 178.062 37.3667 178.062 36.4956C178.062 34.7104 178.736 33.8179 180.084 33.8179C180.744 33.8179 181.25 34.0503 181.602 34.5151C181.957 34.9761 182.135 35.6362 182.135 36.4956Z" fill="#018FFF"/>
<path d="M31.0039 61.5776C31.0039 62.9917 30.6191 64.0737 29.8496 64.8237C29.084 65.5698 27.9805 65.9429 26.5391 65.9429H24.166V57.3765H26.791C28.123 57.3765 29.1582 57.7456 29.8965 58.4839C30.6348 59.2222 31.0039 60.2534 31.0039 61.5776ZM29.9492 61.6128C29.9492 60.4956 29.668 59.6538 29.1055 59.0874C28.5469 58.521 27.7148 58.2378 26.6094 58.2378H25.1621V65.0815H26.375C27.5625 65.0815 28.4551 64.7905 29.0527 64.2085C29.6504 63.6226 29.9492 62.7573 29.9492 61.6128ZM36.7227 65.9429L36.5293 65.0288H36.4824C36.1621 65.4312 35.8418 65.7046 35.5215 65.8491C35.2051 65.9897 34.8086 66.0601 34.332 66.0601C33.6953 66.0601 33.1953 65.896 32.832 65.5679C32.4727 65.2397 32.293 64.7729 32.293 64.1675C32.293 62.8706 33.3301 62.1909 35.4043 62.1284L36.4941 62.0933V61.6948C36.4941 61.1909 36.3848 60.8198 36.166 60.5815C35.9512 60.3394 35.6055 60.2183 35.1289 60.2183C34.5938 60.2183 33.9883 60.3823 33.3125 60.7104L33.0137 59.9663C33.3301 59.7944 33.6758 59.6597 34.0508 59.562C34.4297 59.4644 34.8086 59.4155 35.1875 59.4155C35.9531 59.4155 36.5195 59.5854 36.8867 59.9253C37.2578 60.2651 37.4434 60.8101 37.4434 61.5601V65.9429H36.7227ZM34.5254 65.2573C35.1309 65.2573 35.6055 65.0913 35.9492 64.7593C36.2969 64.4272 36.4707 63.9624 36.4707 63.3647V62.7847L35.498 62.8257C34.7246 62.853 34.166 62.9741 33.8223 63.189C33.4824 63.3999 33.3125 63.73 33.3125 64.1792C33.3125 64.5308 33.418 64.7983 33.6289 64.9819C33.8438 65.1655 34.1426 65.2573 34.5254 65.2573ZM43.5957 64.1909C43.5957 64.7886 43.373 65.2495 42.9277 65.5737C42.4824 65.8979 41.8574 66.0601 41.0527 66.0601C40.2012 66.0601 39.5371 65.9253 39.0605 65.6558V64.7534C39.3691 64.9097 39.6992 65.0327 40.0508 65.1226C40.4062 65.2124 40.748 65.2573 41.0762 65.2573C41.584 65.2573 41.9746 65.1772 42.248 65.0171C42.5215 64.853 42.6582 64.605 42.6582 64.2729C42.6582 64.0229 42.5488 63.8101 42.3301 63.6343C42.1152 63.4546 41.6934 63.2437 41.0645 63.0015C40.4668 62.7788 40.041 62.5854 39.7871 62.4214C39.5371 62.2534 39.3496 62.064 39.2246 61.853C39.1035 61.6421 39.043 61.3901 39.043 61.0972C39.043 60.5737 39.2559 60.1616 39.6816 59.8608C40.1074 59.5562 40.6914 59.4038 41.4336 59.4038C42.125 59.4038 42.8008 59.5444 43.4609 59.8257L43.1152 60.6167C42.4707 60.3511 41.8867 60.2183 41.3633 60.2183C40.9023 60.2183 40.5547 60.2905 40.3203 60.4351C40.0859 60.5796 39.9688 60.7788 39.9688 61.0327C39.9688 61.2046 40.0117 61.3511 40.0977 61.4722C40.1875 61.5933 40.3301 61.7085 40.5254 61.8179C40.7207 61.9272 41.0957 62.0854 41.6504 62.2925C42.4121 62.5698 42.9258 62.8491 43.1914 63.1304C43.4609 63.4116 43.5957 63.7651 43.5957 64.1909ZM49.5781 65.9429V61.7886C49.5781 61.2651 49.459 60.8745 49.2207 60.6167C48.9824 60.3589 48.6094 60.23 48.1016 60.23C47.4258 60.23 46.9316 60.4136 46.6191 60.7808C46.3105 61.1479 46.1562 61.7495 46.1562 62.5854V65.9429H45.1836V56.8257H46.1562V59.5854C46.1562 59.9175 46.1406 60.1929 46.1094 60.4116H46.168C46.3594 60.103 46.6309 59.8608 46.9824 59.6851C47.3379 59.5054 47.7422 59.4155 48.1953 59.4155C48.9805 59.4155 49.5684 59.603 49.959 59.978C50.3535 60.3491 50.5508 60.9409 50.5508 61.7534V65.9429H49.5781Z" fill="white"/>
<g filter="url(#filter2_d_56_222)">
<ellipse opacity="0.5" cx="9.98975" cy="61.1024" rx="5" ry="5.01647" fill="#CCCCCC" fill-opacity="0.5"/>
<ellipse cx="9.98975" cy="61.1027" rx="3" ry="3.00988" fill="#FAD679"/>
</g>
<path d="M162.939 65.0732H161.129V60.1162L161.146 59.3018L161.176 58.4111C160.875 58.7119 160.666 58.9092 160.549 59.0029L159.564 59.7939L158.691 58.7041L161.451 56.5068H162.939V65.0732ZM168.271 56.3955C169.092 56.3955 169.752 56.583 170.252 56.958C170.756 57.3291 171.008 57.8311 171.008 58.4639C171.008 58.9014 170.887 59.292 170.645 59.6357C170.402 59.9756 170.012 60.2803 169.473 60.5498C170.113 60.8936 170.572 61.2529 170.85 61.6279C171.131 61.999 171.271 62.4072 171.271 62.8525C171.271 63.5557 170.996 64.1221 170.445 64.5518C169.895 64.9775 169.17 65.1904 168.271 65.1904C167.334 65.1904 166.598 64.9912 166.062 64.5928C165.527 64.1943 165.26 63.6299 165.26 62.8994C165.26 62.4111 165.389 61.9775 165.646 61.5986C165.908 61.2197 166.326 60.8857 166.9 60.5967C166.412 60.2881 166.061 59.958 165.846 59.6064C165.631 59.2549 165.523 58.8701 165.523 58.4521C165.523 57.8389 165.777 57.3428 166.285 56.9639C166.793 56.585 167.455 56.3955 168.271 56.3955ZM166.936 62.7939C166.936 63.1299 167.053 63.3916 167.287 63.5791C167.521 63.7666 167.842 63.8604 168.248 63.8604C168.697 63.8604 169.033 63.7646 169.256 63.5732C169.479 63.3779 169.59 63.1221 169.59 62.8057C169.59 62.5439 169.479 62.2998 169.256 62.0732C169.037 61.8428 168.68 61.5986 168.184 61.3408C167.352 61.7236 166.936 62.208 166.936 62.7939ZM168.26 57.7197C167.951 57.7197 167.701 57.7998 167.51 57.96C167.322 58.1162 167.229 58.3271 167.229 58.5928C167.229 58.8271 167.303 59.0381 167.451 59.2256C167.604 59.4092 167.877 59.5986 168.271 59.7939C168.654 59.6143 168.922 59.4307 169.074 59.2432C169.227 59.0557 169.303 58.8389 169.303 58.5928C169.303 58.3232 169.205 58.1104 169.01 57.9541C168.814 57.7979 168.564 57.7197 168.26 57.7197ZM173.539 59.0732C173.539 59.5693 173.582 59.9404 173.668 60.1865C173.758 60.4287 173.9 60.5498 174.096 60.5498C174.471 60.5498 174.658 60.0576 174.658 59.0732C174.658 58.0967 174.471 57.6084 174.096 57.6084C173.9 57.6084 173.758 57.7295 173.668 57.9717C173.582 58.21 173.539 58.5771 173.539 59.0732ZM176.135 59.0615C176.135 59.96 175.961 60.6357 175.613 61.0889C175.266 61.5381 174.756 61.7627 174.084 61.7627C173.439 61.7627 172.941 61.5322 172.59 61.0713C172.238 60.6064 172.062 59.9365 172.062 59.0615C172.062 57.2764 172.736 56.3838 174.084 56.3838C174.744 56.3838 175.25 56.6162 175.602 57.0811C175.957 57.542 176.135 58.2021 176.135 59.0615ZM180.166 56.5068L175.414 65.0732H174.008L178.76 56.5068H180.166ZM179.539 62.4951C179.539 62.9912 179.582 63.3623 179.668 63.6084C179.758 63.8506 179.9 63.9717 180.096 63.9717C180.471 63.9717 180.658 63.4795 180.658 62.4951C180.658 61.5186 180.471 61.0303 180.096 61.0303C179.9 61.0303 179.758 61.1514 179.668 61.3936C179.582 61.6318 179.539 61.999 179.539 62.4951ZM182.135 62.4834C182.135 63.3779 181.961 64.0518 181.613 64.5049C181.266 64.9541 180.756 65.1787 180.084 65.1787C179.439 65.1787 178.941 64.9482 178.59 64.4873C178.238 64.0225 178.062 63.3545 178.062 62.4834C178.062 60.6982 178.736 59.8057 180.084 59.8057C180.744 59.8057 181.25 60.0381 181.602 60.5029C181.957 60.9639 182.135 61.624 182.135 62.4834Z" fill="#FAD679"/>
<defs>
<filter id="filter0_d_56_222" x="0.989746" y="4.01318" width="18" height="18.0327" filterUnits="userSpaceOnUse" color-interpolation-filters="sRGB">
<feFlood flood-opacity="0" result="BackgroundImageFix"/>
<feColorMatrix in="SourceAlpha" type="matrix" values="0 0 0 0 0 0 0 0 0 0 0 0 0 0 0 0 0 0 127 0" result="hardAlpha"/>
<feOffset dy="4"/>
<feGaussianBlur stdDeviation="2"/>
<feColorMatrix type="matrix" values="0 0 0 0 0.541176 0 0 0 0 0.32549 0 0 0 0 1 0 0 0 0.2 0"/>
<feBlend mode="normal" in2="BackgroundImageFix" result="effect1_dropShadow_56_222"/>
<feBlend mode="normal" in="SourceGraphic" in2="effect1_dropShadow_56_222" result="shape"/>
</filter>
<filter id="filter1_d_56_222" x="0.989746" y="30.0986" width="18" height="18.0327" filterUnits="userSpaceOnUse" color-interpolation-filters="sRGB">
<feFlood flood-opacity="0" result="BackgroundImageFix"/>
<feColorMatrix in="SourceAlpha" type="matrix" values="0 0 0 0 0 0 0 0 0 0 0 0 0 0 0 0 0 0 127 0" result="hardAlpha"/>
<feOffset dy="4"/>
<feGaussianBlur stdDeviation="2"/>
<feColorMatrix type="matrix" values="0 0 0 0 0 0 0 0 0 0.592157 0 0 0 0 0.909804 0 0 0 0.2 0"/>
<feBlend mode="normal" in2="BackgroundImageFix" result="effect1_dropShadow_56_222"/>
<feBlend mode="normal" in="SourceGraphic" in2="effect1_dropShadow_56_222" result="shape"/>
</filter>
<filter id="filter2_d_56_222" x="0.989746" y="56.0859" width="18" height="18.0327" filterUnits="userSpaceOnUse" color-interpolation-filters="sRGB">
<feFlood flood-opacity="0" result="BackgroundImageFix"/>
<feColorMatrix in="SourceAlpha" type="matrix" values="0 0 0 0 0 0 0 0 0 0 0 0 0 0 0 0 0 0 127 0" result="hardAlpha"/>
<feOffset dy="4"/>
<feGaussianBlur stdDeviation="2"/>
<feColorMatrix type="matrix" values="0 0 0 0 0.27451 0 0 0 0 0.266667 0 0 0 0 0.305882 0 0 0 1 0"/>
<feBlend mode="normal" in2="BackgroundImageFix" result="effect1_dropShadow_56_222"/>
<feBlend mode="normal" in="SourceGraphic" in2="effect1_dropShadow_56_222" result="shape"/>
</filter>
</defs>
</svg>
